<svg id="Layer_1" xmlns="http://www.w3.org/2000/svg" viewBox="0 0 792 612"><style>.st0{fill:#1c7df9}.st1{fill:#fff}</style><path class="st0" d="M106.7 287.5c0-4.8 3.4-10.7 7.6-13.1l31.3-18.1c4.2-2.4 11-2.4 15.1 0l31.3 18.1c4.2 2.4 7.6 8.3 7.6 13.1v36.2c0 4.8-3.4 10.7-7.6 13.1l-31.3 18.1c-4.2 2.4-11 2.4-15.1 0l-31.3-18.1c-4.2-2.4-7.6-8.3-7.6-13.1v-36.2z"/><path class="st1" d="M134.2 279.9c0-2.3 1.8-4.1 4.1-4.1h16.8c5.3 0 9.5 1.5 12.2 4.1 2.1 2.1 3.1 4.6 3.1 7.7v.1c0 5.6-3.2 8.6-6.7 10.4 5.5 1.9 9.3 5 9.3 11.3v.1c0 8.3-6.9 12.8-17.3 12.8h-17.5c-2.3 0-4.1-1.8-4.1-4.1l.1-38.3zm19.3 15.6c5.3 0 8.8-2.1 8.8-6.3v-.2c0-3.7-2.9-5.9-8.2-5.9h-11.8v12.4h11.2zm2.4 19.7c5.6 0 9-2.2 9-6.4v-.1c0-3.9-3.1-6.3-9.6-6.3h-13v12.8h13.6zm13.2 22.3h-32.7c-2 0-3.6-1.6-3.6-3.6s1.6-3.6 3.6-3.6h32.7c2 0 3.6 1.6 3.6 3.6s-1.6 3.6-3.6 3.6z"/><path class="st0" d="M229.9 287.2c0-1.3 1.1-2.3 2.3-2.3h15.2c4.7 0 8.4 1.3 10.7 3.6 1.7 1.8 2.6 3.9 2.6 6.6v.1c0 5.3-3.3 8.1-6.5 9.5 4.9 1.5 8.8 4.3 8.8 9.9v.1c0 7-5.9 11.2-14.9 11.2h-16c-1.2 0-2.3-1.1-2.3-2.3l.1-36.4zm16.7 16c5.6 0 9.4-2.5 9.4-7.3v-.1c0-4-3.2-6.7-9.1-6.7h-12.5v14.1h12.2zm1.7 18.5c6.2 0 10.1-2.8 10.1-7.3v-.1c0-4.5-3.8-7-10.9-7h-13v14.5h13.8v-.1zm35 4.9c-8.3 0-15.1-6.4-15.1-15.8v-.1c0-8.7 6.2-15.8 14.5-15.8 9 0 14.1 7.3 14.1 15.4 0 1.2-1 2.1-2.1 2.1h-21.9c.6 6.6 5.3 10.3 10.7 10.3 3.8 0 6.5-1.5 8.7-3.5.4-.3.8-.5 1.3-.5 1.1 0 2 .9 2 1.9 0 .5-.2 1.1-.7 1.5-3 2.7-6.4 4.5-11.5 4.5zm8.9-17.5c-.5-5.5-3.6-10.3-9.7-10.3-5.3 0-9.3 4.4-9.9 10.3h19.6zm24.3 17.5c-8.3 0-15.1-6.4-15.1-15.8v-.1c0-8.7 6.2-15.8 14.5-15.8 9 0 14.1 7.3 14.1 15.4 0 1.2-1 2.1-2.1 2.1H306c.6 6.6 5.3 10.3 10.7 10.3 3.8 0 6.5-1.5 8.7-3.5.4-.3.8-.5 1.3-.5 1.1 0 2 .9 2 1.9 0 .5-.2 1.1-.7 1.5-2.9 2.7-6.3 4.5-11.5 4.5zm9-17.5c-.5-5.5-3.6-10.3-9.7-10.3-5.3 0-9.3 4.4-9.9 10.3h19.6zm11.8-22.2c0-1.3 1.1-2.3 2.3-2.3 1.3 0 2.3 1.1 2.3 2.3v34.7h21.3c1.2 0 2.1 1 2.1 2.2s-.9 2.1-2.1 2.1h-23.6c-1.2 0-2.3-1.1-2.3-2.3v-36.7zm32.9-.8c0-1.5 1.2-2.4 2.6-2.4 1.5 0 2.7.9 2.7 2.4v.8c0 1.4-1.2 2.4-2.7 2.4s-2.6-1-2.6-2.4v-.8zm.4 11.5c0-1.2 1-2.3 2.2-2.3 1.3 0 2.3 1 2.3 2.3v26.3c0 1.3-.9 2.3-2.2 2.3s-2.3-1-2.3-2.3v-26.3zm13.5 0c0-1.2 1-2.3 2.2-2.3 1.3 0 2.3 1 2.3 2.3v3.3c2-3.3 5.2-5.9 10.4-5.9 7.3 0 11.6 4.9 11.6 12.1v16.8c0 1.3-1 2.3-2.2 2.3-1.3 0-2.3-1-2.3-2.3v-15.7c0-5.6-3-9.1-8.4-9.1-5.2 0-9.1 3.8-9.1 9.5V324c0 1.3-.9 2.3-2.2 2.3s-2.3-1-2.3-2.3v-26.4zm47.9 29c-8.3 0-15.1-6.4-15.1-15.8v-.1c0-8.7 6.2-15.8 14.5-15.8 9 0 14.1 7.3 14.1 15.4 0 1.2-1 2.1-2.1 2.1h-21.9c.6 6.6 5.3 10.3 10.7 10.3 3.8 0 6.5-1.5 8.7-3.5.4-.3.8-.5 1.3-.5 1.1 0 2 .9 2 1.9 0 .5-.2 1.1-.7 1.5-2.9 2.7-6.3 4.5-11.5 4.5zm9-17.5c-.5-5.5-3.6-10.3-9.7-10.3-5.3 0-9.3 4.4-9.9 10.3H441zm24.4-21.9c0-1.3 1.1-2.3 2.3-2.3h15.4c5 0 9.1 1.5 11.7 4.1 2 2 3.2 4.9 3.2 8.1v.1c0 6.7-4.6 10.7-11 11.9l10.2 13.1c.5.5.8 1.1.8 1.7 0 1.2-1.2 2.3-2.3 2.3-.9 0-1.6-.5-2.2-1.2l-11.6-15H470v13.9c0 1.3-1.1 2.3-2.3 2.3-1.2 0-2.3-1.1-2.3-2.3v-36.7zm17.3 18.6c6.2 0 10.6-3.2 10.6-8.4v-.1c0-5-3.9-8.1-10.5-8.1H470v16.7h12.7v-.1zm34.4 20.8c-8.3 0-15.1-6.4-15.1-15.8v-.1c0-8.7 6.2-15.8 14.5-15.8 9 0 14.1 7.3 14.1 15.4 0 1.2-1 2.1-2.1 2.1h-21.9c.6 6.6 5.3 10.3 10.7 10.3 3.8 0 6.5-1.5 8.7-3.5.4-.3.8-.5 1.3-.5 1.1 0 2 .9 2 1.9 0 .5-.2 1.1-.7 1.5-3 2.7-6.4 4.5-11.5 4.5zm9-17.5c-.5-5.5-3.6-10.3-9.7-10.3-5.3 0-9.3 4.4-9.9 10.3h19.6zm8.7 8v-.1c0-6.4 5.3-9.8 13-9.8 3.9 0 6.6.5 9.3 1.3v-1.1c0-5.5-3.3-8.3-9-8.3-3 0-5.6.7-7.9 1.7-.3.1-.6.2-.8.2-1.1 0-2-.9-2-1.9 0-.9.6-1.6 1.2-1.9 3-1.3 6-2.1 9.9-2.1 4.3 0 7.6 1.1 9.8 3.3 2.1 2.1 3.1 5 3.1 8.9V324c0 1.3-.9 2.2-2.2 2.2s-2.2-.9-2.2-2.1v-2.8c-2.1 2.8-5.6 5.2-11 5.2-5.5 0-11.2-3.2-11.2-9.4zm22.3-2.3v-2.9c-2.2-.6-5.2-1.3-8.9-1.3-5.7 0-8.9 2.5-8.9 6.3v.1c0 3.8 3.5 6 7.6 6 5.7 0 10.2-3.4 10.2-8.2zm41.3 9.1c0 1.3-1 2.3-2.2 2.3-1.3 0-2.3-1-2.3-2.3v-4.1c-2.5 3.6-6 6.7-11.6 6.7-7.3 0-14.5-5.7-14.5-15.7v-.1c0-9.9 7.2-15.8 14.5-15.8 5.6 0 9.3 3 11.6 6.5v-16.3c0-1.3.9-2.3 2.2-2.3s2.3 1 2.3 2.3v38.8zm-26-13.2v.1c0 7.2 5 11.7 10.7 11.7 5.6 0 11-4.8 11-11.7v-.1c0-7-5.3-11.7-11-11.7-5.9 0-10.7 4.3-10.7 11.7zm47.9 15.9c-8.3 0-15.1-6.4-15.1-15.8v-.1c0-8.7 6.2-15.8 14.5-15.8 9 0 14.1 7.3 14.1 15.4 0 1.2-1 2.1-2.1 2.1h-21.9c.6 6.6 5.3 10.3 10.7 10.3 3.8 0 6.5-1.5 8.7-3.5.4-.3.8-.5 1.3-.5 1.1 0 2 .9 2 1.9 0 .5-.2 1.1-.7 1.5-2.9 2.7-6.3 4.5-11.5 4.5zm9-17.5c-.5-5.5-3.6-10.3-9.7-10.3-5.3 0-9.3 4.4-9.9 10.3h19.6zm11-11.5c0-1.2 1-2.3 2.2-2.3 1.3 0 2.3 1 2.3 2.3v5.7c2.2-5 6.6-8.1 10.4-8.1 1.3 0 2.2 1 2.2 2.3 0 1.2-.8 2.1-2 2.3-5.9.7-10.7 5.1-10.7 13.8v10.3c0 1.2-.9 2.3-2.2 2.3s-2.3-1-2.3-2.3l.1-26.3z"/></svg>